<?xml version="1.0" encoding="UTF-8"?><svg id="b" xmlns="http://www.w3.org/2000/svg" viewBox="0 0 137.73 137.74"><g id="c"><g><rect width="137.73" height="137.74" style="fill:#fff;"/><path d="M66.16,93c0,11.94-8.7,20.63-20.46,20.63s-20.68-8.69-20.68-20.63,8.69-20.51,20.63-20.51,20.51,8.69,20.51,20.51Z"/><path d="M112.95,93.59v14.43c-3.58,3.46-9.48,5.68-15.91,5.68-13.47,0-22.04-7.84-22.04-19.95s9.49-21.18,22.83-21.18v21.02h15.12Z"/><polygon points="112.95 50.51 112.95 64.95 75 64.95 75 24.19 98.03 24.19 98.03 50.51 112.95 50.51"/><polygon points="24.78 65.08 36.93 42.45 25.28 24.03 65.91 24.03 54.26 42.45 66.4 65.08 24.78 65.08"/></g></g></svg>