<svg width="85" height="94" viewBox="0 0 85 94" fill="none" xmlns="http://www.w3.org/2000/svg">
<g clip-path="url(#clip0_5015_22228)">
<path fill-rule="evenodd" clip-rule="evenodd" d="M46.1108 57.3177C50.0159 56.9039 53.5966 54.9558 56.0653 51.9019C58.5341 48.8481 59.6885 44.9386 59.2748 41.0335C58.9803 38.2539 59.2464 36.0853 59.758 34.4107C59.9013 33.9415 64.9745 32.4693 65.6657 31.9162C65.9357 31.7002 66.2141 31.4985 66.5304 31.2693L66.8263 31.0544C67.247 30.7473 67.7196 30.3926 68.1636 29.9848C69.7692 28.5103 70.199 26.455 69.9226 24.6722C69.6536 22.9374 68.6794 21.2026 67.1044 20.2604C67.0828 20.2466 67.0586 20.2318 67.0317 20.216C66.9676 20.1778 66.888 20.1338 66.791 20.0851C66.597 19.9875 66.3335 19.8714 65.9852 19.7478C65.2896 19.501 64.251 19.2231 62.7439 19.0075C59.7357 18.5776 50.0799 19.4316 42.1852 20.2681C34.2905 21.1046 23.9437 23.638 21.0922 24.6888C19.6637 25.2155 18.7064 25.7048 18.0781 26.0919C17.7635 26.2857 17.53 26.4545 17.3609 26.5906C17.2761 26.6585 17.2075 26.7182 17.1529 26.7689C17.13 26.7901 17.1092 26.8097 17.091 26.8276C15.7485 28.079 15.1593 29.9795 15.2599 31.7321C15.3632 33.5332 16.2144 35.4528 18.0931 36.5581C18.6128 36.8637 19.1493 37.1116 19.6251 37.3237L19.9593 37.4717C20.3166 37.6296 20.631 37.7686 20.9403 37.9232C21.7323 38.3192 27.7279 37.3506 27.9665 37.7793C28.1432 38.0971 28.3134 38.4372 28.4753 38.8012C29.1488 40.6065 29.6329 42.3237 29.8268 44.1536C30.2405 48.0587 32.1884 51.6395 35.2425 54.1082C38.2962 56.5769 42.2057 57.7314 46.1108 57.3177Z" fill="#6AD991"/>
<path fill-rule="evenodd" clip-rule="evenodd" d="M38.2134 3.21174C34.6266 3.82143 31.232 5.27784 28.2313 7.48115C27.309 8.15836 27.1064 9.46794 27.7789 10.4062C28.4513 11.3444 29.7441 11.556 30.6664 10.8788C33.1684 9.04174 35.973 7.84467 38.9159 7.34444C41.8587 6.8442 44.9014 7.04734 47.8697 7.95459C48.964 8.28901 50.1144 7.6621 50.4391 6.55437C50.7638 5.44661 50.1398 4.27753 49.0455 3.9431C45.4853 2.85504 41.8002 2.60204 38.2134 3.21174ZM45.1967 9.81614C41.2783 8.86413 37.2971 9.54087 33.9134 11.7341C32.9538 12.3561 32.677 13.6513 33.2951 14.627C33.9133 15.6028 35.1922 15.8895 36.1518 15.2676C38.5927 13.6854 41.4249 13.204 44.2515 13.8908C45.3627 14.1608 46.475 13.4675 46.7361 12.3423C46.9971 11.2171 46.3078 10.0861 45.1967 9.81614Z" fill="#6FBD81"/>
</g>
<line x1="1.96701e-07" y1="78.75" x2="85" y2="78.75" stroke="#6AD991" stroke-width="4.5"/>
<path d="M7.984 80.028L3.28 73.28H7.62L10.112 77.088H10.308L12.66 73.28H17.14L12.324 80.028L17.14 87H12.828L10.252 83.08H10.056L7.564 87H3.224L7.984 80.028ZM36.9268 83.78C35.9375 84.9747 34.7708 85.8893 33.4268 86.524C32.0828 87.14 30.5801 87.448 28.9188 87.448C27.4255 87.448 26.0348 87.1773 24.7468 86.636C23.4775 86.0947 22.3761 85.3573 21.4428 84.424C20.5095 83.4907 19.7721 82.3893 19.2308 81.12C18.6895 79.832 18.4188 78.4507 18.4188 76.976C18.4188 75.5013 18.6895 74.1293 19.2308 72.86C19.7721 71.572 20.5095 70.4613 21.4428 69.528C22.3761 68.5947 23.4775 67.8573 24.7468 67.316C26.0348 66.7747 27.4255 66.504 28.9188 66.504C30.5241 66.504 31.9335 66.784 33.1468 67.344C34.3788 67.904 35.4708 68.716 36.4228 69.78L33.7628 72.356C33.1655 71.6653 32.4748 71.1147 31.6908 70.704C30.9255 70.2933 30.0108 70.088 28.9468 70.088C28.0135 70.088 27.1361 70.256 26.3148 70.592C25.4935 70.9093 24.7748 71.3667 24.1588 71.964C23.5615 72.5613 23.0855 73.2893 22.7308 74.148C22.3761 74.988 22.1988 75.9307 22.1988 76.976C22.1988 78.0213 22.3761 78.9733 22.7308 79.832C23.0855 80.672 23.5615 81.3907 24.1588 81.988C24.7748 82.5853 25.4935 83.052 26.3148 83.388C27.1361 83.7053 28.0135 83.864 28.9468 83.864C30.0668 83.864 31.0561 83.64 31.9148 83.192C32.7921 82.7253 33.5668 82.072 34.2388 81.232L36.9268 83.78ZM39.2399 66.952H42.9079V72.58L42.6839 75.072H42.9079C43.2999 74.4187 43.8599 73.8867 44.5879 73.476C45.3345 73.0467 46.1652 72.832 47.0799 72.832C48.8532 72.832 50.1599 73.3547 50.9999 74.4C51.8585 75.4453 52.2879 76.8733 52.2879 78.684V87H48.6199V79.132C48.6199 78.18 48.3959 77.4613 47.9479 76.976C47.4999 76.472 46.8745 76.22 46.0719 76.22C45.5679 76.22 45.1199 76.332 44.7279 76.556C44.3359 76.7613 43.9999 77.0507 43.7199 77.424C43.4585 77.7973 43.2532 78.236 43.1039 78.74C42.9732 79.2253 42.9079 79.748 42.9079 80.308V87H39.2399V66.952ZM63.6373 85.544H63.4133C62.9839 86.0667 62.4613 86.5147 61.8453 86.888C61.2479 87.2613 60.4733 87.448 59.5213 87.448C58.8119 87.448 58.1399 87.3267 57.5053 87.084C56.8893 86.86 56.3479 86.5427 55.8813 86.132C55.4146 85.7213 55.0506 85.2267 54.7893 84.648C54.5279 84.0693 54.3973 83.4347 54.3973 82.744C54.3973 82.0347 54.5373 81.4 54.8173 80.84C55.0973 80.2613 55.4893 79.7667 55.9933 79.356C56.4973 78.9453 57.0853 78.6373 57.7573 78.432C58.4479 78.208 59.1946 78.096 59.9973 78.096C60.8933 78.096 61.6306 78.1707 62.2093 78.32C62.7879 78.4507 63.2639 78.5907 63.6373 78.74V78.32C63.6373 77.592 63.3479 76.9947 62.7693 76.528C62.1906 76.0427 61.4719 75.8 60.6133 75.8C59.3439 75.8 58.2706 76.332 57.3933 77.396L54.7333 75.576C56.1893 73.7467 58.1773 72.832 60.6973 72.832C62.8253 72.832 64.4493 73.336 65.5693 74.344C66.6893 75.3333 67.2493 76.808 67.2493 78.768V87H63.6373V85.544ZM63.6373 81.428C63.2079 81.2227 62.7599 81.064 62.2933 80.952C61.8453 80.8213 61.3506 80.756 60.8093 80.756C59.9319 80.756 59.2506 80.952 58.7653 81.344C58.2986 81.7173 58.0653 82.184 58.0653 82.744C58.0653 83.304 58.2893 83.752 58.7373 84.088C59.2039 84.424 59.7359 84.592 60.3333 84.592C60.8186 84.592 61.2666 84.508 61.6773 84.34C62.0879 84.1533 62.4333 83.92 62.7133 83.64C63.0119 83.3413 63.2359 83.0053 63.3853 82.632C63.5533 82.24 63.6373 81.8387 63.6373 81.428ZM70.1657 73.28H73.6097V75.184H73.8337C74.0017 74.848 74.2257 74.54 74.5057 74.26C74.7857 73.98 75.0937 73.7373 75.4297 73.532C75.7843 73.3267 76.1577 73.168 76.5497 73.056C76.9603 72.944 77.3617 72.888 77.7537 72.888C78.239 72.888 78.6497 72.9347 78.9857 73.028C79.3403 73.1213 79.639 73.2427 79.8817 73.392L78.9017 76.724C78.6777 76.612 78.4257 76.528 78.1457 76.472C77.8843 76.3973 77.5577 76.36 77.1657 76.36C76.6617 76.36 76.2043 76.4627 75.7937 76.668C75.383 76.8547 75.0283 77.1253 74.7297 77.48C74.4497 77.8347 74.2257 78.2547 74.0577 78.74C73.9083 79.2067 73.8337 79.72 73.8337 80.28V87H70.1657V73.28Z" fill="black"/>
<defs>
<clipPath id="clip0_5015_22228">
<rect width="60" height="60" fill="white" transform="translate(12.5)"/>
</clipPath>
</defs>
</svg>
